# xmcd
#
# Track frame offsets:
#	150
#	12156
#	27049
#	40292
#	54641
#	67743
#	79147
#	95217
#	105766
#	120310
#	130234
#	144850
#	158414
#	172524
#	183241
#	204229
#	214113
#	226347
#
# Disc length: 3150 seconds
#
# Revision: 0
# Processed by: cddbd v1.5.1PL0 Copyright (c) Steve Scherf et al.
# Submitted via: dBpowerAMP V4.0
#
DISCID=d10c4c12
DTITLE=Viateur Caron - Chanson d'antan
DYEAR=1900
DGENRE=
TTITLE0=Ma belle Gaspésie
TTITLE1=Dans mon shack
TTITLE2=Mon plus beau rêve
TTITLE3=Bûcheron
TTITLE4=Un jour à la fois
TTITLE5=Hôtel de la province
TTITLE6=Hello ma prairie
TTITLE7=La petite japonaise
TTITLE8=Charambi
TTITLE9=Dans ma belle petite maison dans ma vallée
TTITLE10=Madelinot
TTITLE11=La vie de Gertrude Bouffard
TTITLE12=Dis-lui
TTITLE13=Détour
TTITLE14=Unis pour la vie
TTITLE15=Oh  mon coeur
TTITLE16=Sur la table
TTITLE17=Au pied du quai
EXTD=L'acadienne
EXTT0=
EXTT1=
EXTT2=
EXTT3=
EXTT4=
EXTT5=
EXTT6=
EXTT7=
EXTT8=
EXTT9=
EXTT10=
EXTT11=
EXTT12=
EXTT13=
EXTT14=
EXTT15=
EXTT16=
EXTT17=
PLAYORDER=
